<?xml version="1.0" encoding="utf-8"?>
<!-- Generator: Adobe Illustrator 16.2.1, SVG Export Plug-In . SVG Version: 6.00 Build 0)  -->
<!DOCTYPE svg PUBLIC "-//W3C//DTD SVG 1.1//EN" "http://www.w3.org/Graphics/SVG/1.1/DTD/svg11.dtd">
<svg version="1.1" id="Layer_1" xmlns="http://www.w3.org/2000/svg" xmlns:xlink="http://www.w3.org/1999/xlink" x="0px" y="0px"
	 width="57px" height="127px" viewBox="0 0 57 127" enable-background="new 0 0 57 127" xml:space="preserve">
<path fill="#444444" d="M56,28.5C56,43.69,43.682,56,28.5,56C13.321,56,1,43.69,1,28.5S13.321,1,28.5,1C43.682,1,56,13.31,56,28.5z"
	/>
<g>
	<rect x="30.442" y="33.235" fill="#BBBBBB" width="6.614" height="2.65"/>
	<rect x="30.442" y="18.773" fill="#BBBBBB" width="6.614" height="2.64"/>
	<rect x="30.442" y="23.59" fill="#BBBBBB" width="6.614" height="2.632"/>
	<rect x="21.117" y="28.408" fill="#BBBBBB" width="6.612" height="2.64"/>
	<rect x="11.796" y="23.59" fill="#BBBBBB" width="6.61" height="2.632"/>
	<rect x="11.796" y="28.408" fill="#BBBBBB" width="6.61" height="2.64"/>
	<rect x="11.796" y="33.235" fill="#BBBBBB" width="6.61" height="2.65"/>
	<rect x="21.117" y="33.235" fill="#BBBBBB" width="6.612" height="2.65"/>
	<rect x="30.442" y="28.408" fill="#BBBBBB" width="6.614" height="2.64"/>
	<rect x="39.762" y="33.235" fill="#BBBBBB" width="6.605" height="2.65"/>
	<rect x="39.762" y="38.136" fill="#BBBBBB" width="6.605" height="2.638"/>
	<rect x="30.442" y="38.136" fill="#BBBBBB" width="6.614" height="2.638"/>
	<rect x="21.117" y="38.136" fill="#BBBBBB" width="6.612" height="2.638"/>
	<rect x="11.796" y="38.136" fill="#BBBBBB" width="6.61" height="2.638"/>
</g>
<path fill="#444444" d="M56,93.216c0,15.186-12.318,27.5-27.5,27.5c-15.179,0-27.5-12.314-27.5-27.5
	c0-15.19,12.321-27.502,27.5-27.502C43.682,65.714,56,78.025,56,93.216z"/>
<g>
	<rect x="30.442" y="97.951" fill="#DDDDDD" width="6.614" height="2.646"/>
	<rect x="30.442" y="83.485" fill="#DDDDDD" width="6.614" height="2.645"/>
	<rect x="30.442" y="88.304" fill="#DDDDDD" width="6.614" height="2.632"/>
	<rect x="21.117" y="93.122" fill="#DDDDDD" width="6.612" height="2.64"/>
	<rect x="11.796" y="88.304" fill="#DDDDDD" width="6.61" height="2.632"/>
	<rect x="11.796" y="93.122" fill="#DDDDDD" width="6.61" height="2.64"/>
	<rect x="11.796" y="97.951" fill="#DDDDDD" width="6.61" height="2.646"/>
	<rect x="21.117" y="97.951" fill="#DDDDDD" width="6.612" height="2.646"/>
	<rect x="30.442" y="93.122" fill="#DDDDDD" width="6.614" height="2.64"/>
	<rect x="39.762" y="97.951" fill="#DDDDDD" width="6.605" height="2.646"/>
	<rect x="39.762" y="102.851" fill="#DDDDDD" width="6.605" height="2.638"/>
	<rect x="30.442" y="102.851" fill="#DDDDDD" width="6.614" height="2.638"/>
	<rect x="21.117" y="102.851" fill="#DDDDDD" width="6.612" height="2.638"/>
	<rect x="11.796" y="102.851" fill="#DDDDDD" width="6.61" height="2.638"/>
</g>
<path fill="#444444" d="M129,18.5c0,9.667-7.839,17.5-17.5,17.5C101.841,36,94,28.167,94,18.5S101.841,1,111.5,1
	C121.161,1,129,8.833,129,18.5z"/>
<g>
	<rect x="112.284" y="17.732" fill="#DDDDDD" width="3.915" height="1.569"/>
	<rect x="112.284" y="9.167" fill="#DDDDDD" width="3.915" height="1.563"/>
	<rect x="112.284" y="12.021" fill="#DDDDDD" width="3.915" height="1.558"/>
	<rect x="106.762" y="14.873" fill="#DDDDDD" width="3.916" height="1.562"/>
	<rect x="101.242" y="12.021" fill="#DDDDDD" width="3.914" height="1.558"/>
	<rect x="101.242" y="14.873" fill="#DDDDDD" width="3.914" height="1.562"/>
	<rect x="101.242" y="17.732" fill="#DDDDDD" width="3.914" height="1.569"/>
	<rect x="106.762" y="17.732" fill="#DDDDDD" width="3.916" height="1.569"/>
	<rect x="112.284" y="14.873" fill="#DDDDDD" width="3.915" height="1.562"/>
	<rect x="117.804" y="17.732" fill="#DDDDDD" width="3.912" height="1.569"/>
	<rect x="117.804" y="20.634" fill="#DDDDDD" width="3.912" height="1.562"/>
	<rect x="112.284" y="20.634" fill="#DDDDDD" width="3.915" height="1.562"/>
	<rect x="106.762" y="20.634" fill="#DDDDDD" width="3.916" height="1.562"/>
	<rect x="101.242" y="20.634" fill="#DDDDDD" width="3.914" height="1.562"/>
</g>
<rect x="120.541" y="38.958" fill="none" width="51.75" height="12.917"/>
<text transform="matrix(1 0 0 1 120.541 44.6382)" font-family="'MyriadPro-Bold'" font-size="8">menu</text>
</svg>
