<?xml version="1.0" encoding="utf-8"?>
<!-- Generator: Adobe Illustrator 16.2.1, SVG Export Plug-In . SVG Version: 6.00 Build 0)  -->
<!DOCTYPE svg PUBLIC "-//W3C//DTD SVG 1.1//EN" "http://www.w3.org/Graphics/SVG/1.1/DTD/svg11.dtd">
<svg version="1.1" id="Layer_1" xmlns="http://www.w3.org/2000/svg" xmlns:xlink="http://www.w3.org/1999/xlink" x="0px" y="0px"
	 width="57px" height="27px" viewBox="0 0 57 27" enable-background="new 0 0 57 27" xml:space="preserve">
<g>
	<path fill="#444444" d="M26,13.5C26,20.403,20.402,26,13.5,26C6.6,26,1,20.403,1,13.5S6.6,1,13.5,1C20.402,1,26,6.597,26,13.5z"/>
	<g>
		<rect x="14.06" y="12.952" fill="#BBBBBB" width="2.797" height="1.12"/>
		<rect x="14.06" y="6.833" fill="#BBBBBB" width="2.797" height="1.119"/>
		<rect x="14.06" y="8.871" fill="#BBBBBB" width="2.797" height="1.114"/>
		<rect x="10.114" y="10.908" fill="#BBBBBB" width="2.798" height="1.118"/>
		<rect x="6.172" y="8.871" fill="#BBBBBB" width="2.796" height="1.114"/>
		<rect x="6.172" y="10.908" fill="#BBBBBB" width="2.796" height="1.118"/>
		<rect x="6.172" y="12.952" fill="#BBBBBB" width="2.796" height="1.12"/>
		<rect x="10.114" y="12.952" fill="#BBBBBB" width="2.798" height="1.12"/>
		<rect x="14.06" y="10.908" fill="#BBBBBB" width="2.797" height="1.118"/>
		<rect x="18.002" y="12.952" fill="#BBBBBB" width="2.794" height="1.12"/>
		<rect x="18.002" y="15.023" fill="#BBBBBB" width="2.794" height="1.117"/>
		<rect x="14.06" y="15.023" fill="#BBBBBB" width="2.797" height="1.117"/>
		<rect x="10.114" y="15.023" fill="#BBBBBB" width="2.798" height="1.117"/>
		<rect x="6.172" y="15.023" fill="#BBBBBB" width="2.796" height="1.117"/>
	</g>
	<g>
		<path fill="#BBBBBB" d="M6.195,19.013c0-0.366-0.012-0.677-0.023-0.936h0.768l0.041,0.396h0.018
			c0.127-0.186,0.385-0.461,0.889-0.461c0.377,0,0.678,0.191,0.803,0.498h0.012c0.109-0.15,0.24-0.271,0.379-0.354
			c0.162-0.096,0.342-0.144,0.557-0.144c0.564,0,0.99,0.396,0.99,1.271v1.727H9.74v-1.596c0-0.426-0.139-0.671-0.432-0.671
			c-0.211,0-0.361,0.144-0.42,0.317c-0.025,0.066-0.037,0.162-0.037,0.234v1.715H7.965v-1.643c0-0.372-0.133-0.624-0.42-0.624
			c-0.234,0-0.373,0.18-0.426,0.329c-0.029,0.072-0.037,0.156-0.037,0.229v1.709H6.195V19.013z"/>
		<path fill="#BBBBBB" d="M12.057,19.834c0.031,0.379,0.402,0.559,0.828,0.559c0.312,0,0.564-0.043,0.809-0.121l0.121,0.618
			c-0.301,0.12-0.666,0.181-1.062,0.181c-0.994,0-1.564-0.576-1.564-1.494c0-0.743,0.461-1.564,1.48-1.564
			c0.949,0,1.309,0.737,1.309,1.463c0,0.156-0.018,0.294-0.031,0.359H12.057z M13.131,19.211c0-0.223-0.096-0.594-0.516-0.594
			c-0.385,0-0.541,0.348-0.564,0.594H13.131z"/>
		<path fill="#BBBBBB" d="M14.523,19.013c0-0.366-0.012-0.677-0.023-0.936h0.791l0.043,0.401h0.018
			c0.119-0.186,0.42-0.467,0.904-0.467c0.6,0,1.051,0.396,1.051,1.259v1.739h-0.912v-1.625c0-0.378-0.133-0.636-0.461-0.636
			c-0.252,0-0.402,0.174-0.463,0.342c-0.023,0.054-0.035,0.144-0.035,0.228v1.691h-0.912V19.013z"/>
		<path fill="#BBBBBB" d="M20.803,20.068c0,0.384,0.014,0.695,0.025,0.941h-0.793l-0.041-0.414h-0.018
			c-0.115,0.18-0.391,0.48-0.918,0.48c-0.594,0-1.031-0.372-1.031-1.277v-1.722h0.918v1.577c0,0.426,0.137,0.684,0.455,0.684
			c0.252,0,0.396-0.174,0.455-0.317c0.025-0.054,0.031-0.126,0.031-0.198v-1.745h0.916V20.068z"/>
	</g>
</g>
<g>
	<path fill="#444444" d="M56,13.5C56,20.403,50.402,26,43.5,26C36.6,26,31,20.403,31,13.5S36.6,1,43.5,1C50.402,1,56,6.597,56,13.5z
		"/>
	<g>
		<rect x="44.06" y="12.952" fill="#DDDDDD" width="2.797" height="1.12"/>
		<rect x="44.06" y="6.833" fill="#DDDDDD" width="2.797" height="1.119"/>
		<rect x="44.06" y="8.871" fill="#DDDDDD" width="2.797" height="1.114"/>
		<rect x="40.114" y="10.908" fill="#DDDDDD" width="2.798" height="1.118"/>
		<rect x="36.172" y="8.871" fill="#DDDDDD" width="2.796" height="1.114"/>
		<rect x="36.172" y="10.908" fill="#DDDDDD" width="2.796" height="1.118"/>
		<rect x="36.172" y="12.952" fill="#DDDDDD" width="2.796" height="1.12"/>
		<rect x="40.114" y="12.952" fill="#DDDDDD" width="2.798" height="1.12"/>
		<rect x="44.06" y="10.908" fill="#DDDDDD" width="2.797" height="1.118"/>
		<rect x="48.002" y="12.952" fill="#DDDDDD" width="2.794" height="1.12"/>
		<rect x="48.002" y="15.023" fill="#DDDDDD" width="2.794" height="1.117"/>
		<rect x="44.06" y="15.023" fill="#DDDDDD" width="2.797" height="1.117"/>
		<rect x="40.114" y="15.023" fill="#DDDDDD" width="2.798" height="1.117"/>
		<rect x="36.172" y="15.023" fill="#DDDDDD" width="2.796" height="1.117"/>
	</g>
	<g>
		<path fill="#DDDDDD" d="M36.195,19.013c0-0.366-0.012-0.677-0.023-0.936h0.768l0.041,0.396h0.018
			c0.127-0.186,0.385-0.461,0.889-0.461c0.377,0,0.678,0.191,0.803,0.498h0.012c0.109-0.15,0.24-0.271,0.379-0.354
			c0.162-0.096,0.342-0.144,0.557-0.144c0.564,0,0.99,0.396,0.99,1.271v1.727H39.74v-1.596c0-0.426-0.139-0.671-0.432-0.671
			c-0.211,0-0.361,0.144-0.42,0.317c-0.025,0.066-0.037,0.162-0.037,0.234v1.715h-0.887v-1.643c0-0.372-0.133-0.624-0.42-0.624
			c-0.234,0-0.373,0.18-0.426,0.329c-0.029,0.072-0.037,0.156-0.037,0.229v1.709h-0.887V19.013z"/>
		<path fill="#DDDDDD" d="M42.057,19.834c0.031,0.379,0.402,0.559,0.828,0.559c0.312,0,0.564-0.043,0.809-0.121l0.121,0.618
			c-0.301,0.12-0.666,0.181-1.062,0.181c-0.994,0-1.564-0.576-1.564-1.494c0-0.743,0.461-1.564,1.48-1.564
			c0.949,0,1.309,0.737,1.309,1.463c0,0.156-0.018,0.294-0.031,0.359H42.057z M43.131,19.211c0-0.223-0.096-0.594-0.516-0.594
			c-0.385,0-0.541,0.348-0.564,0.594H43.131z"/>
		<path fill="#DDDDDD" d="M44.523,19.013c0-0.366-0.012-0.677-0.023-0.936h0.791l0.043,0.401h0.018
			c0.119-0.186,0.42-0.467,0.904-0.467c0.6,0,1.051,0.396,1.051,1.259v1.739h-0.912v-1.625c0-0.378-0.133-0.636-0.461-0.636
			c-0.252,0-0.402,0.174-0.463,0.342c-0.023,0.054-0.035,0.144-0.035,0.228v1.691h-0.912V19.013z"/>
		<path fill="#DDDDDD" d="M50.803,20.068c0,0.384,0.014,0.695,0.025,0.941h-0.793l-0.041-0.414h-0.018
			c-0.115,0.18-0.391,0.48-0.918,0.48c-0.594,0-1.031-0.372-1.031-1.277v-1.722h0.918v1.577c0,0.426,0.137,0.684,0.455,0.684
			c0.252,0,0.396-0.174,0.455-0.317c0.025-0.054,0.031-0.126,0.031-0.198v-1.745h0.916V20.068z"/>
	</g>
</g>
</svg>
